<?xml version="1.0" standalone="no"?>
<!DOCTYPE svg PUBLIC "-//W3C//DTD SVG 20010904//EN"
 "http://www.w3.org/TR/2001/REC-SVG-20010904/DTD/svg10.dtd">
<svg version="1.0" xmlns="http://www.w3.org/2000/svg"
 width="2500.000000pt" height="1500.000000pt" viewBox="0 0 2500.000000 1500.000000"
 preserveAspectRatio="xMidYMid meet">

<g transform="translate(0.000000,1500.000000) scale(0.100000,-0.100000)"
fill="#000000" stroke="none">
<path d="M762 12015 c-6 -14 -18 -25 -27 -25 -13 0 -15 -74 -15 -643 l0 -643
35 -17 c31 -15 155 -17 1362 -22 741 -3 1372 -10 1428 -16 92 -9 156 -27 225
-64 14 -8 43 -24 65 -36 73 -40 264 -246 265 -285 0 -6 9 -19 20 -29 11 -10
20 -24 20 -32 0 -8 11 -35 25 -61 14 -26 25 -54 25 -62 0 -8 7 -28 16 -45 8
-16 20 -55 25 -85 5 -30 17 -84 26 -120 22 -89 22 -351 0 -435 -9 -33 -19 -82
-23 -110 -3 -27 -15 -69 -25 -92 -11 -23 -19 -47 -19 -53 0 -11 -60 -137 -83
-175 -107 -178 -215 -277 -392 -363 -90 -43 -194 -52 -627 -52 -218 0 -403 -3
-412 -6 -9 -3 -16 -15 -16 -25 0 -29 1226 -1247 1263 -1255 39 -8 113 4 164
27 23 10 50 19 60 19 10 0 36 9 58 20 22 11 44 20 49 20 10 0 37 12 184 83 34
16 67 36 73 44 6 7 15 13 20 13 10 0 79 43 120 75 15 11 39 29 54 40 50 36 92
70 140 115 81 77 235 241 235 251 0 3 13 24 30 45 16 22 36 48 45 59 25 34 66
98 76 119 6 12 21 39 34 61 22 37 62 117 121 240 13 28 24 57 24 66 0 8 4 19
10 25 12 12 57 142 75 219 8 33 21 78 29 100 8 22 15 56 16 76 0 19 9 69 19
110 23 87 41 330 41 539 -1 170 -22 432 -39 475 -7 16 -17 65 -22 109 -6 43
-16 91 -23 105 -8 14 -17 46 -21 71 -4 25 -16 64 -26 87 -11 23 -19 50 -19 60
0 10 -12 41 -25 68 -14 28 -25 55 -25 62 0 10 -35 86 -60 133 -5 8 -23 44 -41
80 -19 36 -41 76 -50 90 -55 85 -126 189 -146 215 -119 149 -224 258 -356 366
-60 49 -112 89 -117 89 -5 0 -15 6 -22 14 -8 7 -27 21 -43 30 -17 10 -48 28
-70 41 -39 24 -151 79 -230 115 -109 49 -136 59 -171 66 -21 4 -57 15 -79 25
-22 10 -52 19 -66 19 -15 0 -53 8 -85 19 -33 10 -113 24 -178 31 -126 12 -146
17 -146 31 0 5 -578 9 -1383 9 l-1384 0 -11 -25z"/>
<path d="M11494 12025 c-4 -8 -25 -20 -49 -26 -53 -13 -127 -77 -183 -158 -23
-34 -42 -65 -42 -69 0 -4 -11 -30 -25 -59 -14 -29 -36 -77 -50 -106 -14 -29
-25 -57 -25 -62 0 -6 -8 -28 -19 -50 -55 -117 -71 -153 -71 -161 0 -5 -8 -27
-19 -49 -57 -121 -71 -153 -71 -164 0 -7 -9 -29 -19 -49 -38 -75 -71 -149 -71
-161 0 -7 -9 -29 -19 -49 -39 -76 -71 -149 -71 -162 0 -7 -9 -27 -19 -44 -10
-17 -22 -45 -26 -63 -3 -17 -13 -37 -21 -44 -8 -6 -14 -19 -14 -29 0 -9 -11
-37 -24 -62 -13 -25 -27 -59 -30 -76 -4 -17 -14 -36 -22 -43 -8 -6 -14 -19
-14 -29 0 -9 -11 -38 -25 -64 -14 -26 -25 -52 -25 -57 0 -12 -41 -106 -70
-161 -11 -20 -20 -42 -20 -48 0 -13 -40 -105 -70 -162 -11 -20 -20 -42 -20
-48 0 -13 -40 -105 -70 -162 -11 -20 -20 -42 -20 -48 0 -10 -23 -65 -71 -166
-10 -23 -19 -45 -19 -50 0 -5 -8 -25 -19 -44 -10 -19 -22 -46 -26 -60 -6 -23
-17 -48 -74 -171 -12 -25 -21 -50 -21 -55 0 -5 -8 -27 -19 -49 -57 -121 -71
-153 -71 -164 0 -7 -9 -29 -19 -49 -38 -75 -71 -149 -71 -161 0 -7 -9 -29 -19
-49 -38 -75 -71 -149 -71 -161 0 -7 -9 -29 -19 -49 -39 -76 -71 -149 -71 -162
0 -7 -9 -27 -19 -44 -10 -17 -22 -45 -26 -63 -3 -17 -12 -37 -20 -43 -8 -6
-17 -26 -20 -43 -4 -18 -15 -45 -25 -62 -10 -16 -21 -44 -25 -62 -3 -17 -12
-37 -20 -43 -8 -6 -17 -26 -20 -43 -4 -18 -16 -46 -26 -63 -10 -17 -19 -37
-19 -44 0 -13 -32 -86 -71 -162 -10 -20 -19 -42 -19 -49 0 -12 -33 -86 -71
-161 -10 -20 -19 -42 -19 -48 0 -13 -40 -105 -70 -162 -11 -20 -20 -42 -20
-49 0 -6 -9 -30 -19 -53 -11 -23 -31 -66 -45 -97 -14 -31 -26 -59 -26 -63 0
-4 -10 -31 -23 -59 -23 -52 -44 -101 -86 -207 -52 -128 -51 -357 0 -431 31
-45 91 -109 102 -109 4 0 32 -11 60 -24 76 -35 230 -46 717 -48 350 -2 426 0
488 14 40 9 81 23 91 32 10 9 22 16 27 16 19 0 102 96 129 150 15 30 36 72 46
92 11 20 19 43 19 50 0 7 11 34 25 60 14 26 25 52 25 58 0 10 23 65 71 166 10
23 19 47 19 55 0 8 9 28 20 44 11 17 20 36 20 44 0 8 12 39 26 70 49 105 62
136 70 161 4 14 15 41 25 60 11 19 19 42 19 50 0 8 9 29 20 45 11 17 20 36 20
44 0 8 12 39 26 70 49 105 62 136 70 161 4 14 15 41 25 60 11 19 19 41 19 49
0 7 8 28 19 45 10 17 22 42 26 56 3 14 16 45 27 70 45 99 57 126 64 150 4 14
15 41 25 60 11 19 19 41 19 49 0 7 8 28 19 45 10 17 22 42 26 56 3 14 15 44
26 68 10 23 28 61 38 85 11 23 23 53 26 67 4 14 16 39 26 56 11 17 19 38 19
47 0 9 11 37 25 63 14 26 25 55 25 64 0 10 6 23 14 29 8 7 18 27 21 44 4 18
16 46 26 63 10 17 19 38 19 46 0 8 11 36 25 62 14 26 25 52 25 59 0 7 12 35
25 62 14 28 25 57 25 66 0 9 6 22 14 28 8 7 18 27 21 44 4 18 16 46 26 63 10
17 19 38 19 46 0 8 11 36 25 62 14 26 25 52 25 57 0 10 24 67 71 165 10 23 19
46 19 52 0 6 11 32 25 58 14 26 25 54 25 63 0 9 7 25 16 36 8 11 19 36 25 57
7 28 15 38 29 38 24 0 60 -34 60 -56 0 -9 8 -31 19 -48 10 -17 22 -42 26 -56
3 -14 15 -44 26 -67 10 -24 28 -62 38 -85 11 -24 23 -54 26 -68 4 -14 16 -39
26 -56 11 -17 19 -39 19 -49 0 -10 8 -32 19 -49 10 -17 22 -42 26 -56 3 -14
15 -44 26 -67 10 -24 28 -62 38 -85 11 -24 23 -54 26 -68 4 -14 16 -39 26 -56
11 -17 19 -38 19 -45 0 -8 8 -30 19 -49 10 -19 21 -46 25 -60 4 -14 16 -44 27
-67 10 -24 28 -62 38 -85 11 -24 23 -54 26 -68 4 -14 16 -39 26 -56 11 -17 19
-38 19 -45 0 -8 8 -30 19 -49 10 -19 21 -46 25 -60 4 -14 16 -44 27 -67 10
-24 28 -62 38 -85 11 -24 23 -54 26 -68 4 -14 16 -39 26 -56 11 -17 19 -38 19
-45 0 -8 8 -30 19 -49 10 -19 21 -46 25 -60 8 -25 21 -56 70 -161 14 -31 26
-62 26 -70 0 -8 9 -27 20 -44 11 -16 20 -37 20 -45 0 -8 8 -31 19 -50 10 -19
21 -46 25 -60 8 -25 21 -56 70 -161 14 -31 26 -62 26 -70 0 -8 9 -27 20 -44
11 -16 20 -36 20 -44 0 -8 9 -32 19 -55 48 -101 71 -156 71 -166 0 -6 11 -32
25 -58 14 -26 25 -54 25 -62 0 -8 9 -28 20 -45 11 -16 20 -37 20 -45 0 -8 8
-31 19 -50 10 -19 21 -46 25 -60 8 -25 21 -56 70 -161 14 -31 26 -62 26 -70 0
-8 9 -27 20 -44 11 -16 20 -36 20 -43 0 -12 22 -64 71 -168 10 -23 19 -47 19
-53 0 -7 11 -33 25 -59 14 -26 25 -54 25 -62 0 -8 9 -28 20 -45 11 -16 20 -36
20 -44 0 -8 9 -32 20 -55 30 -63 80 -183 80 -192 0 -4 7 -15 15 -24 21 -24 35
-74 24 -91 -7 -12 -406 -14 -2601 -17 l-2593 -3 -84 -26 c-77 -24 -91 -33
-153 -94 -37 -37 -68 -74 -68 -81 0 -7 -9 -24 -20 -38 -11 -14 -20 -31 -20
-39 0 -13 -32 -86 -71 -163 -10 -20 -19 -42 -19 -49 0 -12 -33 -86 -71 -161
-10 -20 -19 -43 -19 -50 0 -7 -12 -35 -25 -63 -14 -27 -25 -57 -25 -65 0 -8
-9 -28 -20 -45 -11 -16 -20 -36 -20 -44 0 -8 -9 -33 -19 -55 -63 -131 -87
-274 -57 -339 8 -18 21 -48 29 -67 18 -44 100 -137 130 -146 12 -4 33 -15 47
-25 14 -9 48 -20 75 -24 80 -10 155 -28 155 -37 0 -12 7208 -10 7212 2 2 6 62
18 133 26 139 17 185 35 253 98 39 36 102 127 102 147 0 8 7 27 15 43 29 55
29 124 0 211 -27 83 -52 144 -85 207 -11 20 -20 43 -20 50 0 7 -12 36 -25 63
-14 28 -25 56 -25 63 0 7 -9 30 -19 50 -38 75 -71 149 -71 161 0 7 -9 29 -19
49 -39 76 -71 149 -71 162 0 7 -9 27 -19 44 -10 17 -22 45 -26 63 -3 17 -12
37 -20 43 -8 6 -17 26 -20 43 -4 18 -16 46 -26 63 -10 17 -19 37 -19 44 0 13
-32 86 -71 162 -10 20 -19 42 -19 49 0 6 -9 30 -20 53 -10 23 -33 75 -50 116
-17 41 -40 93 -50 116 -11 23 -20 45 -20 50 0 5 -8 27 -19 49 -58 122 -71 153
-71 165 0 7 -9 27 -19 44 -10 17 -22 45 -26 63 -3 17 -12 37 -20 43 -8 6 -17
26 -20 43 -4 18 -16 46 -26 63 -10 17 -19 37 -19 44 0 13 -32 86 -71 162 -10
20 -19 43 -19 50 0 7 -12 36 -25 63 -14 28 -25 57 -25 65 0 8 -9 26 -20 40
-11 14 -20 31 -20 39 0 8 -9 33 -19 55 -10 23 -31 70 -46 106 -15 36 -38 88
-51 116 -13 28 -24 57 -24 64 0 7 -9 27 -19 44 -10 17 -22 45 -26 63 -3 17
-12 37 -20 43 -8 6 -17 26 -20 43 -4 18 -15 46 -25 62 -10 17 -21 44 -25 62
-3 17 -12 37 -20 43 -8 6 -17 26 -20 43 -4 18 -16 46 -26 63 -10 17 -19 37
-19 44 0 13 -32 86 -71 162 -10 20 -19 43 -19 50 0 7 -11 36 -25 63 -13 28
-25 54 -25 59 0 5 -12 34 -26 65 -14 31 -34 74 -45 97 -10 23 -19 47 -19 54 0
7 -9 27 -19 44 -10 17 -22 45 -26 63 -3 17 -12 37 -20 43 -8 6 -17 26 -20 43
-4 18 -16 46 -26 63 -10 17 -19 37 -19 44 0 7 -11 36 -24 64 -13 28 -34 76
-47 106 -12 30 -33 78 -46 107 -13 28 -23 57 -23 64 0 6 -9 26 -19 43 -10 17
-22 45 -26 63 -3 17 -12 37 -20 43 -8 6 -17 26 -20 43 -4 18 -16 46 -26 63
-10 17 -19 37 -19 44 0 7 -12 38 -26 69 -49 105 -62 136 -70 161 -4 14 -15 41
-25 60 -11 19 -19 40 -19 47 0 6 -11 33 -25 59 -14 26 -25 55 -25 64 0 10 -6
23 -14 29 -8 7 -18 27 -21 44 -4 18 -16 46 -26 63 -10 17 -19 37 -19 44 0 7
-12 38 -26 69 -49 105 -62 136 -70 161 -4 14 -15 41 -25 60 -11 19 -19 39 -19
45 0 5 -12 33 -25 60 -14 28 -25 57 -25 66 0 9 -6 22 -14 28 -8 7 -18 27 -21
44 -4 18 -16 46 -26 63 -10 17 -19 37 -19 44 0 7 -12 38 -26 69 -49 105 -62
136 -70 161 -4 14 -15 41 -25 60 -11 19 -19 38 -19 43 0 8 -27 70 -71 163 -10
23 -19 47 -19 54 0 7 -8 27 -19 44 -10 17 -22 42 -26 56 -3 14 -15 44 -26 68
-10 23 -28 61 -38 85 -11 23 -23 53 -26 67 -4 14 -16 39 -26 56 -11 17 -19 39
-19 48 0 9 -9 34 -20 54 -32 62 -70 150 -70 165 0 8 -8 25 -19 38 -10 13 -22
35 -26 49 -8 26 -68 105 -114 150 -40 39 -87 68 -130 80 -21 5 -44 17 -51 25
-11 13 -93 15 -617 15 -530 0 -604 -2 -609 -15z"/>
<path d="M17510 12031 c0 -10 -41 -27 -89 -36 -71 -15 -194 -125 -216 -195 -4
-14 -16 -41 -26 -60 -14 -25 -19 -56 -19 -109 0 -62 5 -85 31 -140 17 -36 48
-87 68 -113 20 -26 47 -63 61 -83 14 -19 43 -60 65 -90 22 -30 51 -70 65 -90
14 -20 34 -47 45 -61 11 -13 31 -40 45 -59 36 -51 78 -108 92 -125 7 -8 27
-35 43 -60 17 -25 47 -68 68 -95 66 -87 161 -216 179 -243 30 -46 42 -63 88
-123 45 -59 73 -97 120 -164 14 -20 44 -60 68 -90 23 -29 42 -56 42 -59 0 -3
30 -46 68 -96 37 -49 78 -106 92 -126 14 -19 43 -59 65 -87 22 -29 54 -72 70
-97 16 -25 48 -68 70 -97 22 -28 51 -68 65 -88 14 -21 32 -45 40 -54 17 -19
34 -42 87 -121 20 -30 44 -63 52 -72 9 -9 27 -33 41 -53 23 -33 56 -78 95
-130 16 -20 135 -184 177 -243 13 -17 53 -73 91 -122 37 -50 67 -92 67 -95 0
-3 30 -45 68 -95 37 -49 78 -106 92 -125 14 -20 45 -62 70 -94 25 -32 52 -69
60 -81 8 -13 38 -55 67 -94 28 -39 62 -86 75 -104 13 -18 41 -57 63 -85 22
-29 54 -72 70 -97 16 -25 36 -53 45 -62 8 -9 26 -33 40 -53 23 -33 59 -82 96
-130 8 -11 43 -58 77 -104 61 -81 71 -96 112 -157 11 -17 37 -52 58 -80 37
-48 154 -208 197 -269 23 -32 159 -217 184 -250 26 -33 85 -118 107 -152 12
-18 25 -33 29 -33 5 0 11 -9 15 -19 3 -11 27 -47 53 -80 26 -33 58 -76 72 -96
14 -20 43 -60 65 -90 22 -30 51 -71 65 -91 14 -19 34 -46 45 -60 11 -13 31
-40 45 -59 35 -51 78 -107 92 -125 7 -8 18 -22 23 -31 19 -31 50 -74 90 -126
22 -28 51 -68 65 -88 14 -20 43 -60 65 -88 22 -29 54 -72 70 -97 16 -25 48
-68 70 -97 22 -28 50 -67 63 -85 25 -35 151 -209 176 -243 8 -11 40 -54 70
-95 30 -41 61 -82 69 -90 8 -8 20 -26 27 -40 7 -14 29 -45 49 -70 20 -25 50
-65 66 -90 16 -25 48 -68 70 -97 22 -28 51 -68 65 -88 14 -20 32 -43 40 -52 8
-9 22 -26 30 -39 55 -82 97 -141 110 -155 8 -10 26 -33 40 -54 51 -74 190
-241 222 -266 18 -14 62 -39 98 -55 l65 -29 545 1 545 0 78 27 c133 46 187 90
240 197 l32 65 0 3820 0 3820 -22 47 c-13 26 -23 51 -23 56 0 12 -100 122
-112 122 -5 0 -21 9 -36 19 -15 11 -54 25 -87 30 -33 6 -65 18 -71 26 -10 13
-70 15 -428 15 -237 0 -416 -4 -416 -9 0 -12 -21 -19 -95 -31 -66 -11 -149
-47 -199 -87 -43 -36 -74 -88 -101 -170 l-25 -76 0 -2507 c0 -1380 -3 -2515
-6 -2524 -3 -9 -12 -16 -18 -16 -13 0 -129 141 -181 220 -16 25 -49 69 -72 99
-24 29 -43 56 -43 60 0 5 -10 20 -22 34 -21 23 -40 49 -141 185 -15 20 -34 46
-42 57 -19 25 -145 199 -177 243 -13 18 -44 60 -70 94 -27 33 -48 64 -48 68 0
4 -11 20 -25 36 -44 52 -50 59 -80 104 -16 25 -39 57 -50 71 -11 14 -29 38
-40 53 -24 34 -56 77 -113 153 -24 32 -85 117 -137 188 -52 72 -101 139 -109
150 -21 27 -65 86 -99 132 -15 21 -34 47 -42 58 -23 30 -151 205 -177 243 -13
18 -43 60 -68 92 -25 32 -56 75 -70 95 -14 20 -33 46 -42 58 -10 12 -43 56
-73 97 -30 41 -60 83 -67 92 -7 10 -24 34 -38 53 -14 20 -45 63 -70 95 -25 32
-55 74 -68 92 -32 44 -158 218 -177 243 -39 52 -72 97 -95 130 -14 20 -34 47
-45 61 -11 13 -30 38 -43 56 -45 63 -161 223 -204 281 -24 31 -55 74 -70 95
-15 20 -34 46 -43 57 -8 11 -39 54 -69 95 -30 41 -61 82 -68 90 -8 8 -27 35
-43 60 -16 25 -48 68 -70 97 -22 28 -51 68 -65 88 -14 20 -43 60 -65 88 -22
29 -54 72 -70 97 -16 25 -35 52 -42 60 -15 17 -56 71 -93 125 -14 19 -34 46
-45 59 -11 14 -31 41 -45 61 -14 20 -43 60 -65 88 -22 29 -54 72 -70 97 -16
25 -48 68 -70 97 -22 28 -51 68 -65 88 -87 126 -199 228 -263 240 -21 4 -48
16 -61 26 -23 18 -50 19 -565 19 -304 0 -541 -4 -541 -9z"/>
<path d="M738 8483 c-17 -4 -18 -122 -18 -2299 0 -2264 0 -2294 19 -2294 11 0
22 -4 25 -8 3 -5 293 -12 646 -16 567 -6 644 -5 670 9 l30 16 0 1589 c0 1008
4 1598 10 1614 5 14 14 26 20 26 16 0 63 -47 1444 -1420 1933 -1924 1809
-1802 1863 -1822 42 -15 96 -17 433 -18 212 0 604 3 873 7 481 6 487 7 487 27
0 13 -63 83 -177 197 -98 97 -822 822 -1609 1610 -787 789 -1453 1453 -1479
1477 -47 40 -51 42 -115 42 -41 0 -90 -8 -125 -20 -56 -19 -84 -20 -852 -20
l-793 0 -365 368 c-200 202 -492 496 -648 655 -279 283 -291 293 -339 280z"/>
<path d="M17460 6606 c-105 -33 -171 -80 -230 -167 -16 -24 -30 -51 -30 -59 0
-9 -8 -27 -17 -40 -17 -23 -18 -93 -18 -1120 l0 -1095 25 -60 c48 -115 115
-188 217 -236 l62 -29 507 0 507 0 56 26 c103 49 164 107 216 203 l30 56 0
1115 0 1115 -32 65 c-57 117 -135 184 -260 225 l-76 25 -441 -1 c-431 0 -443
-1 -516 -23z"/>
</g>
</svg>
