<?xml version="1.0" encoding="UTF-8" standalone="no"?>
<!DOCTYPE svg PUBLIC "-//W3C//DTD SVG 1.1//EN" "http://www.w3.org/Graphics/SVG/1.1/DTD/svg11.dtd">
<svg xmlns="http://www.w3.org/2000/svg" version="1.1" viewBox="0.00 0.00 685.00 278.00">
<path fill="#ffffff" d="
  M 157.93 69.33
  C 155.30 67.88 152.00 67.52 148.62 67.52
  Q 120.05 67.49 91.10 67.49
  A 0.76 0.76 0.0 0 1 90.34 66.73
  L 90.38 38.27
  Q 90.39 37.27 91.39 37.27
  Q 119.99 37.24 147.75 37.25
  C 167.10 37.26 183.68 46.57 192.39 64.12
  C 206.57 92.67 196.06 135.06 162.13 143.20
  A 2.03 2.00 60.6 0 1 160.24 142.66
  L 132.50 115.02
  Q 132.02 114.55 132.69 114.54
  Q 142.16 114.48 151.49 114.45
  Q 157.02 114.44 161.90 109.66
  C 172.29 99.47 171.31 76.70 157.93 69.33
  Z"
/>
<path fill="#ffffff" d="
  M 343.23 89.36
  A 0.48 0.48 0.0 0 0 342.42 89.49
  Q 326.11 128.65 309.80 167.27
  Q 307.59 172.50 301.52 172.51
  Q 293.14 172.53 284.79 172.49
  Q 278.89 172.47 276.46 171.18
  C 270.95 168.25 272.30 161.86 274.49 156.72
  Q 298.36 100.72 322.30 44.74
  C 324.11 40.51 326.32 37.19 331.50 37.20
  Q 343.25 37.22 355.00 37.32
  C 359.23 37.36 362.10 40.56 363.79 44.60
  Q 398.32 126.62 433.21 208.49
  C 434.98 212.64 432.65 217.54 428.95 219.46
  Q 426.87 220.54 421.87 220.53
  Q 341.56 220.50 261.25 220.50
  C 254.95 220.51 250.39 215.14 252.74 208.93
  Q 254.70 203.73 260.33 190.81
  Q 262.76 185.24 268.75 185.21
  Q 325.64 185.01 382.83 184.95
  A 0.61 0.61 0.0 0 0 383.29 183.93
  Q 382.73 183.30 382.30 182.26
  Q 362.95 136.28 343.75 90.25
  Q 343.51 89.67 343.23 89.36
  Z"
/>
<path fill="#ffffff" d="
  M 578.61 157.65
  A 0.34 0.33 -67.6 0 0 579.18 157.41
  Q 579.33 102.62 579.11 47.75
  C 579.07 38.57 584.81 37.26 592.88 37.23
  C 598.06 37.21 606.76 36.38 610.84 38.57
  Q 615.02 40.81 615.02 46.50
  Q 614.99 129.00 615.02 211.50
  C 615.02 218.59 609.32 220.11 603.07 220.17
  Q 594.79 220.25 586.50 220.17
  C 581.05 220.11 579.30 218.92 576.01 214.41
  Q 516.32 132.53 456.51 50.73
  C 452.48 45.21 456.91 37.44 464.00 37.35
  Q 474.50 37.22 484.99 37.24
  Q 490.08 37.25 493.02 41.26
  Q 535.02 98.61 577.11 155.89
  Q 577.84 156.89 578.61 157.65
  Z"
/>
<path fill="#ffffff" d="
  M 120.87 147.48
  L 120.81 217.97
  A 0.54 0.53 90.0 0 1 120.28 218.51
  L 91.01 218.48
  A 0.72 0.72 0.0 0 1 90.29 217.76
  L 90.37 116.31
  Q 90.38 114.55 91.62 115.80
  L 119.86 144.38
  A 2.18 2.15 -22.2 0 0 121.39 145.01
  Q 136.88 144.99 152.75 145.01
  Q 155.77 145.01 159.63 143.83
  C 160.94 143.43 162.45 145.03 163.44 146.03
  Q 199.32 182.02 235.39 218.15
  A 0.20 0.20 0.0 0 1 235.25 218.49
  L 195.76 218.52
  A 3.02 3.00 -22.4 0 1 193.63 217.64
  L 122.47 146.81
  Q 120.87 145.23 120.87 147.48
  Z"
/>
<rect fill="#ffffff" x="-18.09" y="-31.46" transform="translate(473.17,188.69) rotate(-0.1)" width="36.18" height="62.92" rx="9.11"/>
</svg>
